<svg width="221" height="77" viewBox="0 0 221 77" fill="none" xmlns="http://www.w3.org/2000/svg">
<path d="M142.125 33H130.377V29.1914H133.512V14.9971H130.377V11.1885H142.125V14.9971H138.99V29.1914H142.125V33ZM160.875 33H155.719V24.8408C155.719 24.1768 155.689 23.5176 155.631 22.8633C155.582 22.1992 155.484 21.7109 155.338 21.3984C155.162 21.0273 154.908 20.7637 154.576 20.6074C154.244 20.4414 153.8 20.3584 153.243 20.3584C152.823 20.3584 152.398 20.4365 151.969 20.5928C151.539 20.749 151.08 20.998 150.592 21.3398V33H145.465V16.5498H150.592V18.3662C151.432 17.6533 152.247 17.0967 153.038 16.6963C153.839 16.2959 154.723 16.0957 155.689 16.0957C157.369 16.0957 158.653 16.6279 159.542 17.6924C160.431 18.7471 160.875 20.2803 160.875 22.292V33ZM140.66 69.4248C137.389 69.4248 134.791 68.4385 132.867 66.4658C130.943 64.4834 129.981 61.7002 129.981 58.1162C129.981 54.6592 130.943 51.9053 132.867 49.8545C134.801 47.7939 137.403 46.7637 140.675 46.7637C141.544 46.7637 142.325 46.8125 143.019 46.9102C143.712 47.0078 144.376 47.1445 145.011 47.3203C145.509 47.4668 146.051 47.667 146.637 47.9209C147.223 48.1748 147.696 48.3945 148.058 48.5801V53.7803H147.501C147.237 53.5459 146.905 53.2676 146.505 52.9453C146.104 52.6133 145.65 52.291 145.143 51.9785C144.635 51.666 144.073 51.4023 143.458 51.1875C142.853 50.9629 142.218 50.8506 141.554 50.8506C140.763 50.8506 140.035 50.9775 139.371 51.2314C138.717 51.4756 138.092 51.9053 137.496 52.5205C136.949 53.0771 136.5 53.8291 136.148 54.7764C135.807 55.7236 135.636 56.8418 135.636 58.1309C135.636 59.4883 135.816 60.6309 136.178 61.5586C136.539 62.4766 137.013 63.2188 137.599 63.7852C138.165 64.332 138.795 64.7275 139.488 64.9717C140.191 65.2158 140.89 65.3379 141.583 65.3379C142.306 65.3379 142.994 65.2207 143.648 64.9863C144.303 64.7422 144.854 64.4736 145.304 64.1807C145.792 63.8779 146.222 63.5703 146.593 63.2578C146.964 62.9453 147.286 62.667 147.56 62.4229H148.058V67.5498C147.657 67.7354 147.193 67.9502 146.666 68.1943C146.139 68.4287 145.597 68.6289 145.04 68.7949C144.356 69 143.717 69.1562 143.121 69.2637C142.525 69.3711 141.705 69.4248 140.66 69.4248ZM162.047 57.3984H161.622C161.427 57.3301 161.144 57.2812 160.772 57.252C160.401 57.2129 159.991 57.1934 159.542 57.1934C159.005 57.1934 158.438 57.2715 157.843 57.4277C157.257 57.584 156.686 57.7695 156.129 57.9844V69H151.002V52.5498H156.129V54.9082C156.363 54.6934 156.686 54.4248 157.096 54.1025C157.516 53.7705 157.896 53.5068 158.238 53.3115C158.609 53.0869 159.039 52.8965 159.527 52.7402C160.025 52.5742 160.494 52.4912 160.934 52.4912C161.1 52.4912 161.285 52.4961 161.49 52.5059C161.695 52.5156 161.881 52.5303 162.047 52.5498V57.3984ZM172.433 69.4395C169.327 69.4395 166.944 68.6973 165.284 67.2129C163.634 65.7285 162.809 63.6143 162.809 60.8701C162.809 58.1846 163.58 56.041 165.123 54.4395C166.666 52.8379 168.824 52.0371 171.598 52.0371C174.117 52.0371 176.012 52.7158 177.281 54.0732C178.551 55.4307 179.186 57.374 179.186 59.9033V61.749H167.95C167.999 62.5107 168.16 63.1504 168.434 63.668C168.707 64.1758 169.068 64.5811 169.518 64.8838C169.957 65.1865 170.47 65.4062 171.056 65.543C171.642 65.6699 172.281 65.7334 172.975 65.7334C173.57 65.7334 174.156 65.6699 174.732 65.543C175.309 65.4062 175.836 65.2305 176.314 65.0156C176.734 64.8301 177.12 64.6299 177.472 64.415C177.833 64.2002 178.126 64.0098 178.351 63.8438H178.893V68.0771C178.473 68.2432 178.087 68.3994 177.735 68.5459C177.394 68.6826 176.92 68.8242 176.314 68.9707C175.758 69.1172 175.182 69.2295 174.586 69.3076C174 69.3955 173.282 69.4395 172.433 69.4395ZM174.132 58.6582C174.103 57.5742 173.849 56.749 173.37 56.1826C172.901 55.6162 172.179 55.333 171.202 55.333C170.206 55.333 169.425 55.6309 168.858 56.2266C168.302 56.8223 167.994 57.6328 167.936 58.6582H174.132ZM196.778 69H191.651V67.2861C191.319 67.5596 190.938 67.8525 190.509 68.165C190.089 68.4775 189.718 68.7119 189.396 68.8682C188.985 69.0635 188.58 69.21 188.18 69.3076C187.779 69.4053 187.301 69.4541 186.744 69.4541C184.869 69.4541 183.385 68.6777 182.291 67.125C181.197 65.5723 180.65 63.4971 180.65 60.8994C180.65 59.4639 180.836 58.2188 181.207 57.1641C181.578 56.1094 182.091 55.1914 182.745 54.4102C183.341 53.6973 184.063 53.1357 184.913 52.7256C185.763 52.3057 186.661 52.0957 187.608 52.0957C188.468 52.0957 189.171 52.1885 189.718 52.374C190.274 52.5498 190.919 52.8281 191.651 53.209V46.207H196.778V69ZM191.651 64.459V56.3877C191.397 56.2607 191.065 56.1582 190.655 56.0801C190.245 55.9922 189.894 55.9482 189.601 55.9482C188.37 55.9482 187.442 56.3779 186.817 57.2373C186.202 58.0967 185.895 59.2979 185.895 60.8408C185.895 62.4619 186.139 63.6338 186.627 64.3564C187.125 65.0791 187.926 65.4404 189.029 65.4404C189.479 65.4404 189.933 65.3525 190.392 65.1768C190.851 65.001 191.271 64.7617 191.651 64.459ZM205.846 69H200.719V52.5498H205.846V69ZM205.992 50.2061H200.572V46.207H205.992V50.2061ZM216.07 69.3223C213.98 69.3223 212.457 68.8926 211.5 68.0332C210.553 67.1738 210.079 65.7676 210.079 63.8145V56.124H208.116V52.5498H210.079V47.8477H215.206V52.5498H220.143V56.124H215.206V61.9541C215.206 62.5303 215.211 63.0332 215.221 63.4629C215.23 63.8926 215.309 64.2783 215.455 64.6201C215.592 64.9619 215.831 65.2354 216.173 65.4404C216.524 65.6357 217.032 65.7334 217.696 65.7334C217.97 65.7334 218.326 65.6748 218.766 65.5576C219.215 65.4404 219.527 65.333 219.703 65.2354H220.143V68.8535C219.586 69 218.995 69.1123 218.37 69.1904C217.745 69.2783 216.979 69.3223 216.07 69.3223Z" fill="black"/>
<circle cx="38.5" cy="38.5" r="38.5" fill="#111010"/>
<circle cx="82.1328" cy="38.5" r="38.5" fill="#FFED00"/>
</svg>
